#!OML:ASF E:/inclinewalkrobotboard/Project1/Captureday1/Session1/subject1.ASF
:FULLY-SPECIFIED
:DEGREES
151
root 0 0 0 -1.8055108863316969 -4.970899900306405 -7.085315955790477
lowerback 11.68045420649076 1.747213385492586 6.417752753084247
upperback 0.5893295666402815 3.2425655845545904 2.262762840662538
thorax -5.716495843769428 1.467639161857223 -1.7266185296179075
lowerneck -17.379769442172638 -3.5777393662630423 -1.4897962608687996
upperneck 20.717655664069465 -4.569740245234053 0.14874624427252692
head 9.526464687663992 -2.2272438442126257 -0.2942372999481386
rclavicle 1.4066271023396099E-15 1.067229003339558E-15
rhumerus -28.875407932844173 -18.400039399136595 -77.98044087273178
rradius 28.744439413450078
rwrist 0.8214631132138921
rhand -19.124939711305007 24.158807902270286
rfingers 7.125020000000017
rthumb 7.185713772424251 -5.732494626997479
lclavicle -1.8947571294323954E-15 1.5868494911144816E-15
lhumerus -35.03073544127122 -0.9904207050639849 84.97009238138321
lradius 28.257057282683654
lwrist 6.722020575802072
lhand -27.281477565200635 23.765678000194605
lfingers 7.125020000000015
lthumb -0.684135107906255 53.75422544952718
rfemur -0.07394581952606138 8.432421589795172 36.693968438276535
rtibia 31.996984416299494
rfoot -22.081938036013867 -7.64157913330472
rtoes 8.164647859823175
lfemur -31.248301334100553 1.4475426964222136 -10.531137800043464
ltibia 38.28672427993701
lfoot -7.259761852185428 2.4943109944617254
ltoes -5.916026764734436
152
root 0 0 0 -1.6013708974770573 -5.250835280918734 -7.176754902020666
lowerback 11.475120809686477 1.8514913817180751 6.651030347477678
upperback 0.8177731388525772 3.3825515993601343 2.233384475334735
thorax -5.333395608182031 1.53414735922073 -1.899284176090959
lowerneck -17.55713103997892 -3.5165643045810095 -1.5986701070359142
upperneck 19.67044712351743 -4.441548570008781 0.26304864746491896
head 9.140595231399884 -2.1814823037271114 -0.22150691920467375
rclavicle 2.0507601632426634E-15 2.4353510564344604E-16
rhumerus -27.86828229647523 -17.339911586694704 -77.94079750364352
rradius 29.80283529391581
rwrist 0.04846839156973193
rhand -19.309847628087365 24.634120029906548
rfingers 7.125020000000017
rthumb 7.00817057186821 -5.27677360374382
lclavicle -1.6974643645835349E-15 8.360509805722346E-16
lhumerus -35.24301724021559 -0.7001148684902512 84.88779285996137
lradius 27.958359422119912
lwrist 6.533269456122678
lhand -27.287222589233487 23.725429951935347
lfingers 7.125020000000016
lthumb -0.6899426634620127 53.715776968651966
rfemur 5.612440477600576 8.302639674516744 35.57443659836745
rtibia 28.230792821244684
rfoot -21.794283323895616 -6.831092407081545
rtoes 3.3212924999123388
lfemur -26.966615896473552 -3.6367525664119733 -11.124711567857817
ltibia 20.78440209255224
lfoot -5.135945607066473 4.431190171672803
ltoes -3.1568170764651455
153
root 0 0 0 -1.7399777831442726 -5.287921030745863 -7.031299076854488
lowerback 11.514001357418625 1.8791174967742346 6.487614965469051
upperback 0.800563510145062 3.398670886014467 2.184080804620531
thorax -5.376981903484475 1.5449643784585678 -1.8625229727235042
lowerneck -17.47418208397884 -3.5469339527222346 -1.6012038558571788
upperneck 19.451073593233108 -4.50120764249297 0.3567699324977367
head 9.060909605947979 -2.200641736070295 -0.19451304569663896
rclavicle 2.195222789967073E-15 -1.4030914680726028E-15
rhumerus -27.908989505196235 -17.70309311908447 -77.75793140435844
rradius 29.714885069180234
rwrist 0.15916214103624782
rhand -19.319650027242858 24.58058071292328
rfingers 7.125020000000017
rthumb 6.999589279123864 -5.334637285962778
lclavicle -1.601094123921212E-15 -9.534522579706645E-16
lhumerus -35.47494602129489 -0.31283269397216584 84.70894142765384
lradius 27.480725730093155
lwrist 6.2112317733162925
lhand -27.26454382248664 23.86434817907057
lfingers 7.125020000000017
lthumb -0.6676163053701867 53.85869283358991
rfemur 11.683580628760264 8.360344311395211 35.471749325552715
rtibia 26.328316644449995
rfoot -20.837008691208073 -5.267172683820933
rtoes -2.878350115205036
lfemur -26.288156351806133 -4.523785072020656 -11.36210323575026
ltibia 20.176340716490174
lfoot -5.533914905801325 4.586482571648101
ltoes -1.5425858255021936
154
root 0 0 0 -2.002380434848811 -5.229045142832578 -6.687828593899982
lowerback 11.619168444951606 1.9008293438009103 6.09087320233767
upperback 0.6856327940788067 3.3842622306066144 2.0762499468879447
thorax -5.570805830533525 1.5441601605844812 -1.7548199048561326
lowerneck -17.20690294692014 -3.62273851328275 -1.5448154475568328
upperneck 19.466349503357517 -4.656375805715881 0.4841268442059363
head 9.058364791902582 -2.2517789317858994 -0.17456416046158096
rclavicle 1.2771405518478431E-15 -2.3749030791536464E-15
rhumerus -28.322788003691674 -18.637500948776086 -77.39370458704427
rradius 29.258464234101872
rwrist 0.5618857916114326
rhand -19.297131810019835 24.347899614840383
rfingers 7.125020000000017
rthumb 7.022126110089292 -5.5767245848989475
lclavicle -2.623368309998937E-15 -2.2043789960883274E-15
lhumerus -35.77355682465344 0.3568056024640164 84.39633648934148
lradius 26.7600706232371
lwrist 5.763748121792601
lhand -27.186002493753453 24.090021935066506
lfingers 7.125020000000018
lthumb -0.5919665114910417 54.091819517908064
rfemur 12.191134489666844 7.922690015459761 35.29974397291571
rtibia 29.513406657855757
rfoot -18.7918527704266 -4.01112403787934
rtoes -5.044106480644846
lfemur -25.79939309932775 -4.325162478163978 -11.978100002606224
ltibia 20.87473754210601
lfoot -5.4209228465993196 3.9661637075049985
ltoes -1.4379868064532602
155
root 0 0 0 -2.135709831479993 -5.186496632245483 -6.133994506994583
lowerback 11.491865617935613 1.957001907909457 5.527139457273942
upperback 0.5624656648873917 3.382393849844707 1.8731740734554325
thorax -5.641348726939247 1.5533770725535394 -1.6500172180315147
lowerneck -16.842138386177382 -3.648302437813486 -1.4522246983560947
upperneck 19.54601998708141 -4.753375550641462 0.6382646582532854
head 9.053615032469178 -2.2716606013614817 -0.14317251639033274
rclavicle 7.92118591612173E-16 -2.262700389999165E-15
rhumerus -28.90765222481614 -19.79899593384775 -76.93899420393419
rradius 28.70387529150617
rwrist 0.9887604648575374
rhand -19.26522012182255 24.021479301684156
rfingers 7.125020000000017
rthumb 7.053028838475871 -5.910693937047352
lclavicle -3.0444971437026928E-15 -2.3363040295403077E-15
lhumerus -36.02341150479538 1.2132345109887555 83.98653352723497
lradius 25.949729305803473
lwrist 5.282955472990901
lhand -27.035245011250133 24.38147889174975
lfingers 7.125020000000019
lthumb -0.446627800777204 54.38884038291021
rfemur 9.22494827484821 5.898845970660124 31.708236142800857
rtibia 36.59077563113617
rfoot -12.47847225080531 -1.941116947362028
rtoes -4.680882364695448
lfemur -24.509906051779176 -3.713233571441439 -14.026013451652389
ltibia 22.741740758687534
lfoot -5.020079853449852 2.3328894778177593
ltoes 0.49094260872963247
156
root 0 0 0 -2.4114856241184413 -5.185645006476294 -3.66911735902036
lowerback 10.805640654328332 2.1183464570551784 3.3690769869500885
upperback 0.37664730823082637 3.2868849569203453 1.1247178505198339
thorax -5.4923914823771005 1.5516058039703975 -1.200361217811015
lowerneck -16.16993590492965 -3.5648839927741767 -1.397744824732217
upperneck 20.390554134401775 -4.737884358568761 0.9546896385595744
head 9.251208858613529 -2.2223483451801096 -0.03966478198435319
rclavicle 1.202065731275371E-15 -2.416906974020776E-15
rhumerus -29.885143387251045 -21.457854477395188 -76.35681238499791
rradius 27.79638289995035
rwrist 1.6862727137432243
rhand -19.123845051542563 23.490697880503156
rfingers 7.12502000000002
rthumb 7.188507833037136 -6.435224384838701
lclavicle -2.7329341010249375E-15 -2.8848132866107635E-15
lhumerus -36.1909777780932 2.4053711147219174 83.42413476687103
lradius 24.904152151845963
lwrist 4.626838757664144
lhand -26.77930685474739 24.469992320168593
lfingers 7.1250200000000214
lthumb -0.20041470571569064 54.48400466627673
rfemur -4.259054641749726 3.277197473379448 26.40051336816016
rtibia 62.42821396079339
rfoot 10.830530814763053 -1.0757815494195628
rtoes 12.245300431027458
lfemur -20.125504292596556 -2.271433025861175 -20.401401215819917
ltibia 27.968739613469292
lfoot -4.240071968401979 -2.023869323888848
ltoes 7.92609586032755
157
root 0 0 0 -3.6366367472143644 -4.722973381824749 -0.6429544337537396
lowerback 10.67726508583382 1.748943483328648 0.5125274062068879
upperback 0.42256180539279875 2.4192770149322538 0.6137752752314557
thorax -5.478865427138652 1.18942646982726 -0.004683298225660604
lowerneck -16.11172126300383 -3.2621105119768017 -1.6172450749363767
upperneck 21.41221081941062 -4.280622000575173 0.8850257910036431
head 9.547739733391479 -2.029489404712201 0.019791942575064503
rclavicle 1.2429225450696588E-15 -1.8518069093195934E-15
rhumerus -30.528610228423474 -22.276643767166718 -76.1978871274578
rradius 27.159140971366615
rwrist 2.143909035345586
rhand -19.039847039301236 23.217263681362184
rfingers 7.125020000000021
rthumb 7.269264044344387 -6.704273884991633
lclavicle -2.5998464256730637E-15 -2.3066460563103303E-15
lhumerus -35.832522533388435 1.9821065196805263 83.4375493871963
lradius 25.256527092353647
lwrist 5.037088307631856
lhand -26.995266244434305 24.20859079333361
lfingers 7.125020000000023
lthumb -0.40633200631726574 54.221489511969075
rfemur -7.442661487229544 3.013943104649422 28.382638091981928
rtibia 72.78450442379201
rfoot 13.442255635809186 -2.1581317839143446
rtoes 18.135555989832152
lfemur -17.97512841748862 -2.2810382086159766 -21.568176552930268
ltibia 28.673730438695173
lfoot -5.110527183795362 -2.1087407502895172
ltoes 7.991336206424819
